HIERARCHY
ROOT hip
{
  OFFSET 0 0 0
  CHANNELS 6 Xposition Yposition Zposition Zrotation Yrotation Xrotation
  JOINT abdomen
  {
    OFFSET 0 20.6881 -0.73152
    CHANNELS 3 Zrotation Xrotation Yrotation
    JOINT chest
    {
      OFFSET 0 11.7043 -0.48768
      CHANNELS 3 Zrotation Xrotation Yrotation
      JOINT neck
      {
        OFFSET 0 22.1894 -2.19456
        CHANNELS 3 Zrotation Xrotation Yrotation
        JOINT head
        {
          OFFSET -0.24384 7.07133 1.2192
          CHANNELS 3 Zrotation Xrotation Yrotation
          JOINT leftEye
          {
            OFFSET 4.14528 8.04674 8.04672
            CHANNELS 3 Zrotation Xrotation Yrotation
            End Site
            {
              OFFSET 1 0 0
            }
          }
          JOINT rightEye
          {
            OFFSET -3.6576 8.04674 8.04672
            CHANNELS 3 Zrotation Xrotation Yrotation
            End Site
            {
              OFFSET 1 0 0
            }
          }
        }
      }
      JOINT rCollar
      {
        OFFSET -2.68224 19.2634 -4.8768
        CHANNELS 3 Zrotation Xrotation Yrotation
        JOINT rShldr
        {
          OFFSET -8.77824 -1.95073 1.46304
          CHANNELS 3 Zrotation Xrotation Yrotation
          JOINT rForeArm
          {
            OFFSET -28.1742 -1.7115 0.48768
            CHANNELS 3 Zrotation Xrotation Yrotation
            JOINT rHand
            {
              OFFSET -22.5879 0.773209 7.07136
              CHANNELS 3 Zrotation Xrotation Yrotation
              JOINT rThumb1
              {
                OFFSET -1.2192 -0.487915 3.41376
                CHANNELS 3 Zrotation Xrotation Yrotation
                JOINT rThumb2
                {
                  OFFSET -3.37035 -0.52449 3.41376
                  CHANNELS 3 Zrotation Xrotation Yrotation
                  End Site
                  {
                    OFFSET -1.78271 -1.18214 1.43049
                  }
                }
              }
              JOINT rIndex1
              {
                OFFSET -7.75947 0.938293 5.60832
                CHANNELS 3 Zrotation Xrotation Yrotation
                JOINT rIndex2
                {
                  OFFSET -2.54057 -0.884171 1.56538
                  CHANNELS 3 Zrotation Xrotation Yrotation
                  End Site
                  {
                    OFFSET -1.62519 -0.234802 1.16502
                  }
                }
              }
              JOINT rMid1
              {
                OFFSET -8.24714 1.18213 3.41376
                CHANNELS 3 Zrotation Xrotation Yrotation
                JOINT rMid2
                {
                  OFFSET -3.10165 -0.590103 1.0647
                  CHANNELS 3 Zrotation Xrotation Yrotation
                  End Site
                  {
                    OFFSET -2.48547 -0.328903 0.83742
                  }
                }
              }
              JOINT rRing1
              {
                OFFSET -8.82822 0.546677 1.51678
                CHANNELS 3 Zrotation Xrotation Yrotation
                JOINT rRing2
                {
                  OFFSET -2.60934 -0.819778 -0.0198488
                  CHANNELS 3 Zrotation Xrotation Yrotation
                  End Site
                  {
                    OFFSET -2.33842 -0.294052 0.168128
                  }
                }
              }
              JOINT rPinky1
              {
                OFFSET -8.27202 -0.0477905 -0.4584
                CHANNELS 3 Zrotation Xrotation Yrotation
                JOINT rPinky2
                {
                  OFFSET -1.82734 -0.647385 -0.700984
                  CHANNELS 3 Zrotation Xrotation Yrotation
                  End Site
                  {
                    OFFSET -1.69225 -0.51767 -0.607171
                  }
                }
              }
            }
          }
        }
      }
      JOINT lCollar
      {
        OFFSET 2.68224 19.2634 -4.8768
        CHANNELS 3 Zrotation Xrotation Yrotation
        JOINT lShldr
        {
          OFFSET 8.77824 -1.95073 1.46304
          CHANNELS 3 Zrotation Xrotation Yrotation
          JOINT lForeArm
          {
            OFFSET 28.1742 -1.7115 0.48768
            CHANNELS 3 Zrotation Xrotation Yrotation
            JOINT lHand
            {
              OFFSET 22.5879 0.773209 7.07136
              CHANNELS 3 Zrotation Xrotation Yrotation
              JOINT lThumb1
              {
                OFFSET 1.2192 -0.487915 3.41376
                CHANNELS 3 Zrotation Xrotation Yrotation
                JOINT lThumb2
                {
                  OFFSET 3.37035 -0.52449 3.41376
                  CHANNELS 3 Zrotation Xrotation Yrotation
                  End Site
                  {
                    OFFSET 1.78271 -1.18214 1.43049
                  }
                }
              }
              JOINT lIndex1
              {
                OFFSET 7.75947 0.938293 5.60832
                CHANNELS 3 Zrotation Xrotation Yrotation
                JOINT lIndex2
                {
                  OFFSET 2.54057 -0.884171 1.56538
                  CHANNELS 3 Zrotation Xrotation Yrotation
                  End Site
                  {
                    OFFSET 1.62519 -0.234802 1.16502
                  }
                }
              }
              JOINT lMid1
              {
                OFFSET 8.24714 1.18213 3.41376
                CHANNELS 3 Zrotation Xrotation Yrotation
                JOINT lMid2
                {
                  OFFSET 3.10165 -0.590103 1.0647
                  CHANNELS 3 Zrotation Xrotation Yrotation
                  End Site
                  {
                    OFFSET 2.48547 -0.328903 0.83742
                  }
                }
              }
              JOINT lRing1
              {
                OFFSET 8.82822 0.546677 1.51678
                CHANNELS 3 Zrotation Xrotation Yrotation
                JOINT lRing2
                {
                  OFFSET 2.60934 -0.819778 -0.0198488
                  CHANNELS 3 Zrotation Xrotation Yrotation
                  End Site
                  {
                    OFFSET 2.33842 -0.294052 0.168128
                  }
                }
              }
              JOINT lPinky1
              {
                OFFSET 8.27202 -0.0477905 -0.4584
                CHANNELS 3 Zrotation Xrotation Yrotation
                JOINT lPinky2
                {
                  OFFSET 1.82734 -0.647385 -0.700984
                  CHANNELS 3 Zrotation Xrotation Yrotation
                  End Site
                  {
                    OFFSET 1.69225 -0.51767 -0.607171
                  }
                }
              }
            }
          }
        }
      }
    }
  }
  JOINT rButtock
  {
    OFFSET -8.77824 4.35084 1.2192
    CHANNELS 3 Zrotation Xrotation Yrotation
    JOINT rThigh
    {
      OFFSET 0 -1.70687 -2.19456
      CHANNELS 3 Zrotation Xrotation Yrotation
      JOINT rShin
      {
        OFFSET 0 -36.8199 0.73152
        CHANNELS 3 Zrotation Xrotation Yrotation
        JOINT rFoot
        {
          OFFSET 0.73152 -45.1104 -5.12064
          CHANNELS 3 Zrotation Xrotation Yrotation
          End Site
          {
            OFFSET -1.1221 -3.69964 12.103
          }
        }
      }
    }
  }
  JOINT lButtock
  {
    OFFSET 8.77824 4.35084 1.2192
    CHANNELS 3 Zrotation Xrotation Yrotation
    JOINT lThigh
    {
      OFFSET 0 -1.70687 -2.19456
      CHANNELS 3 Zrotation Xrotation Yrotation
      JOINT lShin
      {
        OFFSET 0 -36.8199 0.73152
        CHANNELS 3 Zrotation Xrotation Yrotation
        JOINT lFoot
        {
          OFFSET -0.73152 -45.1104 -5.12064
          CHANNELS 3 Zrotation Xrotation Yrotation
          End Site
          {
            OFFSET 1.1221 -3.69964 12.103
          }
        }
      }
    }
  }
}
MOTION
Frames:	7
Frame Time:	0.00833333
59.3044 85.2368 -96.3665 0.0 0.0 0.0 0.717221 -0.00360072 0.02023 0.197725 -0.00495975 0.0342585 -3.86772e-15 0.0 1.61513e-16 -1.16258e-14 3.18055e-15 4.95409e-16 -0.0 0.0 0.0 -0.0 0.0 0.0 -1.8898e-15 7.76503e-18 2.48481e-16 -3.8608e-14 2.11209e-16 2.38542e-15 -6.93162e-13 2.13892e-13 2.22639e-14 -7.9787e-12 -1.77937e-13 3.37139e-13 -1.88111e-11 7.66719e-14 7.88778e-13 -3.24961e-11 1.36764e-13 1.36446e-12 -1.88074e-11 7.55382e-14 7.82416e-13 7.73091 5.47488 0.417314 -1.88105e-11 7.65321e-14 7.91958e-13 2.90554 0.965183 0.102902 -1.88071e-11 7.66315e-14 7.89573e-13 10.2786 0.731801 0.0259123 -1.88205e-11 8.0309e-14 8.0468e-13 2.22167 -0.733487 -0.20892 -1.98663e-15 7.76503e-18 -4.96962e-17 -4.2119e-14 4.22417e-16 7.95139e-16 -7.01213e-13 -1.9958e-13 5.725e-14 -7.96595e-12 2.41449e-13 3.11694e-13 -1.88002e-11 8.56329e-14 8.015e-13 -3.24584e-11 1.49486e-13 1.36923e-12 -1.88038e-11 8.66701e-14 8.0468e-13 -7.73091 5.47488 -0.417314 -1.87996e-11 8.54774e-14 7.95139e-13 -2.90554 0.965183 -0.102902 -1.88043e-11 8.55768e-14 7.91163e-13 -10.2786 0.731801 -0.0259123 -1.87937e-11 8.98507e-14 7.88778e-13 -2.22167 -0.733487 0.20892 -2.03217e-16 0.0 -3.88251e-19 1.07377 -4.87151 -0.0898522 -0.00140722 3.27153 0.00103948 -0.5349 1.59984 0.0939904 2.03217e-16 0.0 3.88251e-19 0.016142 -2.15037 0.0188739 0.00887995 -1.65734 0.0750311 0.52712 3.80744 -0.138609
54.9337 83.6221 -99.1262 -8.4567 -37.3715 7.7033 1.22139 0.763105 -0.260515 1.5423 -0.87595 -0.00460781 -4.61435 1.34756 -2.43361 6.12418 -2.05654 -3.59424 -0.0 0.0 0.0 -0.0 0.0 0.0 -1.66157e-14 3.87541e-14 1.29253e-13 21.26 0.131676 -1.45548 -4.83844 -2.33735 7.40047 0.0397462 -4.42542 -0.615273 8.20295e-11 -6.59096e-10 5.71623e-10 1.29826e-10 -1.14366e-09 9.93834e-10 8.20359e-11 -6.59098e-10 5.71614e-10 7.73091 5.47488 0.417314 8.20311e-11 -6.59098e-10 5.71623e-10 2.90554 0.965183 0.102902 8.2034e-11 -6.59097e-10 5.71621e-10 10.2786 0.731801 0.0259123 8.20203e-11 -6.59095e-10 5.71632e-10 2.22167 -0.733487 -0.20892 -1.67404e-14 3.87549e-14 1.28983e-13 -22.0199 0.715874 -0.119475 3.66608 -1.56901 -5.82676 -0.0183086 3.00254 -0.41989 -2.5194e-10 1.40428e-09 1.21825e-09 -4.22477e-10 2.44273e-09 2.1097e-09 -2.51945e-10 1.40428e-09 1.21825e-09 -7.73091 5.47488 -0.417314 -2.51939e-10 1.40428e-09 1.21824e-09 -2.90554 0.965183 -0.102902 -2.51946e-10 1.40428e-09 1.21824e-09 -10.2786 0.731801 -0.0259123 -2.51935e-10 1.40428e-09 1.21823e-09 -2.22167 -0.733487 0.20892 -2.03217e-16 0.0 -3.88251e-19 1.75709 -8.91231 1.0059 0.00816559 12.7598 0.1571 -0.912069 -2.9125 -2.75001 2.03217e-16 0.0 3.88251e-19 1.14179 -5.75783 0.34939 -0.0289347 8.95031 -0.109462 0.829871 -2.92236 2.59378
54.9095 83.6282 -99.1471 -8.6228 -37.2759 7.7532 1.76092 1.57517 -0.55492 2.9506 -1.78804 -0.0457062 -9.3606 2.76344 -5.01074 12.3239 -4.20515 -7.41 -0.0 0.0 0.0 -0.0 0.0 0.0 -3.37857e-14 8.19138e-14 2.73261e-13 43.7543 0.249499 -2.99108 -9.29558 -4.67273 15.2525 -0.0227389 -9.0929 -1.27675 1.94506e-10 -1.40003e-09 1.20625e-09 3.10846e-10 -2.42933e-09 2.09727e-09 1.94516e-10 -1.40003e-09 1.20624e-09 7.73091 5.47488 0.417314 1.94509e-10 -1.40004e-09 1.20624e-09 2.90554 0.965183 0.102902 1.94511e-10 -1.40003e-09 1.20624e-09 10.2786 0.731801 0.0259123 1.94497e-10 -1.40003e-09 1.20625e-09 2.22167 -0.733487 -0.20892 -3.3943e-14 8.19155e-14 2.73021e-13 -45.2824 1.46973 -0.257521 7.19385 -3.17179 -11.9961 0.0104634 6.18165 -0.8684 -5.13895e-10 2.98997e-09 2.5957e-09 -8.6067e-10 5.20097e-09 4.49507e-09 -5.13902e-10 2.98998e-09 2.5957e-09 -7.73091 5.47488 -0.417314 -5.13893e-10 2.98998e-09 2.5957e-09 -2.90554 0.965183 -0.102902 -5.13903e-10 2.98998e-09 2.59569e-09 -10.2786 0.731801 -0.0259123 -5.13893e-10 2.98998e-09 2.59568e-09 -2.22167 -0.733487 0.20892 -2.03217e-16 0.0 -3.88251e-19 2.64859 -13.1757 2.19325 -0.0423724 22.7892 0.340665 -1.80077 -7.64877 -5.80171 2.03217e-16 0.0 3.88251e-19 2.37553 -9.56997 0.705386 0.00916249 20.1641 -0.32143 1.85516 -9.99763 5.55799
54.9687 83.6348 -98.9462 -8.0305 -37.3898 7.2412 2.25227 2.2963 -0.822595 4.2279 -2.61793 -0.0824248 -13.4999 4.01349 -7.31685 17.5999 -6.07234 -10.8373 -0.0 0.0 0.0 -0.0 0.0 0.0 -4.60676e-14 1.16247e-13 3.87261e-13 63.8001 0.394009 -4.36652 -12.7444 -6.54515 22.3362 -0.1725 -13.27 -1.89082 2.83711e-10 -1.97744e-09 1.71329e-09 4.54469e-10 -3.43127e-09 2.97877e-09 2.83723e-10 -1.97744e-09 1.71328e-09 7.73091 5.47488 0.417314 2.83714e-10 -1.97745e-09 1.71329e-09 2.90554 0.965183 0.102902 2.83716e-10 -1.97745e-09 1.71328e-09 10.2786 0.731801 0.0259123 2.83702e-10 -1.97744e-09 1.71329e-09 2.22167 -0.733487 -0.20892 -4.6248e-14 1.16249e-13 3.87048e-13 -66.0508 2.14759 -0.358648 10.0549 -4.51267 -17.5298 0.0784897 9.00568 -1.27364 -7.18219e-10 4.21266e-09 3.65314e-09 -1.20252e-09 7.32789e-09 6.32635e-09 -7.18227e-10 4.21267e-09 3.65314e-09 -7.73091 5.47488 -0.417314 -7.18217e-10 4.21267e-09 3.65314e-09 -2.90554 0.965183 -0.102902 -7.18228e-10 4.21267e-09 3.65313e-09 -10.2786 0.731801 -0.0259123 -7.18219e-10 4.21267e-09 3.65313e-09 -2.22167 -0.733487 0.20892 -2.03217e-16 0.0 -3.88251e-19 3.60641 -16.9713 3.30437 -0.151722 31.7353 0.538031 -3.02831 -11.8164 -8.6111 2.03217e-16 0.0 3.88251e-19 3.52089 -12.971 1.03148 0.1244 30.1645 -0.548688 3.41491 -16.225 8.38399
54.9779 83.6337 -98.9264 -7.9296 -37.4993 7.1881 2.60747 2.79031 -1.02288 5.18013 -3.24233 -0.108112 -16.3638 4.87675 -8.93019 21.1123 -7.32892 -13.2412 -0.0 0.0 0.0 -0.0 0.0 0.0 -4.61293e-14 1.28512e-13 4.26244e-13 77.7157 0.605818 -5.34155 -14.8946 -7.69939 27.372 -0.334245 -16.2272 -2.34423 3.14735e-10 -2.14604e-09 1.90138e-09 5.04597e-10 -3.72388e-09 3.30545e-09 3.14748e-10 -2.14604e-09 1.90137e-09 7.73091 5.47488 0.417314 3.1474e-10 -2.14605e-09 1.90138e-09 2.90554 0.965183 0.102902 3.14741e-10 -2.14605e-09 1.90138e-09 10.2786 0.731801 0.0259123 3.14727e-10 -2.14605e-09 1.90138e-09 2.22167 -0.733487 -0.20892 -4.63086e-14 1.28515e-13 4.26045e-13 -80.5916 2.63546 -0.367217 11.9058 -5.38272 -21.4276 0.149185 10.9439 -1.55724 -7.78466e-10 4.52784e-09 3.91057e-09 -1.3035e-09 7.87654e-09 6.77238e-09 -7.78476e-10 4.52784e-09 3.91057e-09 -7.73091 5.47488 -0.417314 -7.78465e-10 4.52784e-09 3.91058e-09 -2.90554 0.965183 -0.102902 -7.78476e-10 4.52784e-09 3.91057e-09 -10.2786 0.731801 -0.0259123 -7.78466e-10 4.52784e-09 3.91056e-09 -2.22167 -0.733487 0.20892 -2.03217e-16 0.0 -3.88251e-19 4.38642 -19.6174 4.1332 -0.274935 37.9743 0.707566 -4.13552 -14.6807 -10.6406 2.03217e-16 0.0 3.88251e-19 4.3539 -15.346 1.26395 0.264321 37.1324 -0.745942 4.89588 -20.4885 10.5238
54.9778 83.6324 -98.9324 -7.914 -37.599 7.2069 2.76927 2.96911 -1.13383 5.70285 -3.59711 -0.118275 -17.5651 5.21932 -9.55993 22.3801 -7.78438 -14.1703 -0.0 0.0 0.0 -0.0 0.0 0.0 -2.32184e-14 1.07558e-13 3.21591e-13 83.0188 0.941089 -5.77046 -15.7314 -8.15154 29.4731 -0.416136 -17.4902 -2.54346 2.58621e-10 -1.57738e-09 1.4639e-09 4.17471e-10 -2.73731e-09 2.54462e-09 2.58634e-10 -1.57738e-09 1.46389e-09 7.73091 5.47488 0.417314 2.58626e-10 -1.57739e-09 1.4639e-09 2.90554 0.965183 0.102902 2.58628e-10 -1.57738e-09 1.4639e-09 10.2786 0.731801 0.0259123 2.58614e-10 -1.57738e-09 1.4639e-09 2.22167 -0.733487 -0.20892 -2.33573e-14 1.0756e-13 3.21387e-13 -86.4477 2.85852 -0.211652 12.6286 -5.72601 -23.0219 0.179942 11.6318 -1.65931 -4.83398e-10 3.31516e-09 2.77218e-09 -8.04439e-10 5.76644e-09 4.80043e-09 -4.83409e-10 3.31516e-09 2.77218e-09 -7.73091 5.47488 -0.417314 -4.83398e-10 3.31516e-09 2.77218e-09 -2.90554 0.965183 -0.102902 -4.83408e-10 3.31516e-09 2.77217e-09 -10.2786 0.731801 -0.0259123 -4.83395e-10 3.31516e-09 2.77217e-09 -2.22167 -0.733487 0.20892 -2.03217e-16 0.0 -3.88251e-19 4.76374 -20.6683 4.51634 -0.336703 40.4233 0.784546 -4.62633 -15.8117 -11.443 2.03217e-16 0.0 3.88251e-19 4.71234 -16.2837 1.35333 0.335996 39.8545 -0.835916 5.58054 -22.121 11.4367
54.9593 83.6317 -98.9534 -8.0653 -37.6215 7.3317 2.79092 2.92271 -1.18057 5.9179 -3.75846 -0.11733 -17.603 5.19552 -9.48425 22.0996 -7.68664 -14.0368 -0.0 0.0 0.0 -0.0 0.0 0.0 1.58221e-14 6.29848e-14 1.1618e-13 82.1681 1.36355 -5.80879 -15.7428 -8.19232 29.4603 -0.416062 -17.5441 -2.55129 1.40536e-10 -4.8995e-10 5.88108e-10 2.32608e-10 -8.50652e-10 1.0218e-09 1.40546e-10 -4.89955e-10 5.88093e-10 7.73091 5.47488 0.417314 1.4054e-10 -4.89958e-10 5.88105e-10 2.90554 0.965183 0.102902 1.40543e-10 -4.89959e-10 5.88103e-10 10.2786 0.731801 0.0259123 1.40529e-10 -4.89958e-10 5.88105e-10 2.22167 -0.733487 -0.20892 1.57515e-14 6.29857e-14 1.15957e-13 -86.0993 2.89232 0.0595434 12.6084 -5.73014 -22.9624 0.172431 11.4276 -1.62918 5.8152e-11 1.02342e-09 6.49895e-10 1.10704e-10 1.77863e-09 1.12415e-09 5.81402e-11 1.02341e-09 6.49901e-10 -7.73091 5.47488 -0.417314 5.81503e-11 1.02341e-09 6.49901e-10 -2.90554 0.965183 -0.102902 5.81421e-11 1.02341e-09 6.49895e-10 -10.2786 0.731801 -0.0259123 5.81586e-11 1.02341e-09 6.49891e-10 -2.22167 -0.733487 0.20892 -2.03217e-16 0.0 -3.88251e-19 4.81127 -20.584 4.56277 -0.329789 40.1656 0.776507 -4.56937 -15.7306 -11.3303 2.03217e-16 0.0 3.88251e-19 4.72142 -16.195 1.33682 0.326957 39.5445 -0.825241 5.52052 -21.9126 11.3862
